<?xml version="1.0" encoding="UTF-8"?>
<svg id="Layer_2" data-name="Layer 2" xmlns="http://www.w3.org/2000/svg" viewBox="0 0 1717.71 1035.26">
  <defs>
    <style>
      .cls-1 {
        fill: none;
        stroke: #fffaff;
        stroke-miterlimit: 10;
        stroke-width: 50px;
      }
    </style>
  </defs>
  <g id="Layer_1-2" data-name="Layer 1">
    <path class="cls-1" d="M1648.77,412.26l-341.93-341.93c-58.58-58.58-153.55-58.58-212.13,0l-235.16,235.16-236.56-236.56c-28.13-28.13-66.28-43.93-106.07-43.93s-77.94,15.8-106.07,43.93L68.93,410.86c-58.58,58.58-58.58,153.55,0,212.13,58.58,58.58,153.55,58.58,212.13,0l235.86-235.86,224.37,224.37c3.54,4.46,7.36,8.77,11.49,12.89,29.29,29.29,67.67,43.94,106.07,43.93,38.38,0,76.78-14.65,106.07-43.93l235.86-235.86,235.86,235.86c29.29,29.29,67.68,43.93,106.07,43.93s76.78-14.64,106.07-43.93c58.58-58.58,58.58-153.55,0-212.13Z"/>
    <g>
      <path class="cls-1" d="M1683.05,571.38c-.86,2.27-1.77,4.53-2.75,6.77.97-2.24,1.89-4.5,2.75-6.77Z"/>
      <path class="cls-1" d="M1436.64,624.4l-106.07-106.07-129.79,129.79-129.79-129.79-106.07,106.07c-29.29,29.29-67.68,43.93-106.07,43.93-38.39,0-76.77-14.64-106.07-43.93-4.12-4.12-7.94-8.43-11.49-12.89l-93.88-93.88-236.56,236.56c-58.58,58.58-58.58,153.55,0,212.13s153.55,58.58,212.13,0l235.86-235.86,235.86,235.86c29.29,29.29,67.68,43.93,106.07,43.93s76.78-14.64,106.07-43.93l341.93-341.93c-29.29,29.29-67.68,43.93-106.07,43.93s-76.78-14.64-106.07-43.93Z"/>
      <path class="cls-1" d="M1648.77,412.26c24.71,24.71,39,55.9,42.86,88.11-3.86-32.2-18.15-63.39-42.86-88.11,0,0,0,0,0,0h0Z"/>
      <path class="cls-1" d="M1691.64,500.37c.43,3.58.73,7.17.9,10.76-.17-3.6-.47-7.19-.9-10.76Z"/>
      <path class="cls-1" d="M1686.53,561.04c-.69,2.32-1.43,4.63-2.23,6.92.8-2.29,1.54-4.6,2.23-6.92Z"/>
      <path class="cls-1" d="M1692.54,525.53c-.11,2.4-.29,4.79-.51,7.18.23-2.39.4-4.79.51-7.18Z"/>
      <path class="cls-1" d="M1690.61,543.43c-.6,3.56-1.33,7.1-2.19,10.61.86-3.52,1.59-7.06,2.19-10.61Z"/>
    </g>
  </g>
</svg>