<?xml version="1.0" encoding="UTF-8"?>
<svg id="Layer_2" data-name="Layer 2" xmlns="http://www.w3.org/2000/svg" viewBox="0 0 2487.9 2487.9">
  <defs>
    <style>
      .cls-1 {
        fill: #f4f3ee;
      }

      .cls-2 {
        fill: #272d2d;
        stroke: #f4f3ee;
        stroke-miterlimit: 10;
        stroke-width: 50px;
      }
    </style>
  </defs>
  <g id="Layer_1-2" data-name="Layer 1">
    <rect class="cls-1" x="330.77" y="330.77" width="1826.35" height="1826.35" rx="114.61" ry="114.61" transform="translate(-515.26 1243.95) rotate(-45)"/>
    <path class="cls-2" d="M1585.87,1739.34c-38.39,0-76.78-14.64-106.07-43.93l-235.86-235.86-235.86,235.86c-58.58,58.58-153.55,58.58-212.13,0-58.58-58.58-58.58-153.55,0-212.13l341.93-341.93c58.58-58.58,153.55-58.58,212.13,0l235.86,235.86,235.86-235.86c58.58-58.58,153.55-58.58,212.13,0,58.58,58.58,58.58,153.55,0,212.13l-341.93,341.93c-29.29,29.29-67.68,43.93-106.07,43.93Z"/>
    <path class="cls-2" d="M2033.87,1141.34l-341.93-341.93c-58.58-58.58-153.55-58.58-212.13,0l-235.16,235.16-236.56-236.56c-28.13-28.13-66.28-43.93-106.07-43.93s-77.94,15.8-106.07,43.93l-341.93,341.93c-58.58,58.58-58.58,153.55,0,212.13,58.58,58.58,153.55,58.58,212.13,0l235.86-235.86,224.37,224.37c3.54,4.46,7.36,8.77,11.49,12.89,29.29,29.29,67.67,43.94,106.07,43.93,38.38,0,76.78-14.65,106.07-43.93l235.86-235.86,235.86,235.86c29.29,29.29,67.68,43.93,106.07,43.93s76.78-14.64,106.07-43.93c58.58-58.58,58.58-153.55,0-212.13Z"/>
  </g>
</svg>